<?xml version="1.0" encoding="UTF-8"?>
<svg xmlns="http://www.w3.org/2000/svg" xmlns:xlink="http://www.w3.org/1999/xlink" xmlns:svgjs="http://svgjs.com/svgjs" version="1.1" width="512" height="512" x="0" y="0" viewBox="0 0 511.264 511.264" style="enable-background:new 0 0 512 512" xml:space="preserve" class="">
  <g>
    <g xmlns="http://www.w3.org/2000/svg">
      <path d="m438.023 149.79h-2.042l.135-9.271c.244-9.132-3.44-17.944-10.113-24.185-5.216-4.878-11.877-7.829-18.904-8.475l-.107-2.301c-.402-8.655-4.186-16.598-10.654-22.363-6.15-5.482-13.98-8.317-22.16-8.086l-1.101-6.812c-1.906-11.8-8.723-22.34-18.702-28.919-9.553-6.299-21.298-8.501-32.461-6.135-4.216-5.549-10.728-8.958-17.798-9.191l-.834-1.034c-11.803-14.628-29.354-23.018-48.15-23.018s-36.347 8.39-48.15 23.018l-.835 1.034c-7.07.233-13.582 3.643-17.798 9.191-11.161-2.367-22.907-.164-32.461 6.135-9.979 6.579-16.796 17.119-18.702 28.918l-1.101 6.813c-8.169-.237-16.01 2.604-22.16 8.086-6.468 5.766-10.252 13.708-10.654 22.364l-.107 2.296c-7.012.644-13.683 3.596-18.904 8.479-6.673 6.241-10.357 15.053-10.113 24.185l.135 9.271h-1.042c-10.275 0-18.634 8.359-18.634 18.634v11.096c0 10.275 8.359 18.634 18.634 18.634h1.194l46.286 296.147c1.536 9.829 9.872 16.962 19.82 16.962h229.184c9.948 0 18.284-7.134 19.82-16.962l46.286-296.147h2.194c10.275 0 18.634-8.359 18.634-18.634v-11.096c-.001-10.275-8.36-18.634-18.635-18.634zm-155.047 48.364-9.514 298.109h-36.66l-9.514-298.109zm-147.435 293.831-45.924-293.831h49.889l7.219 73.974c.378 3.875 3.641 6.772 7.456 6.772.244 0 .49-.012.737-.036 4.123-.402 7.138-4.07 6.736-8.193l-7.077-72.517h57.704l9.514 298.109h-38.125l-18.897-193.63c-.402-4.123-4.075-7.142-8.193-6.736-4.123.402-7.138 4.07-6.736 8.193l18.755 192.173h-28.059c-2.509.001-4.612-1.799-4.999-4.278zm239.182 0c-.387 2.479-2.49 4.279-5 4.279h-28.059l5.318-54.492c.402-4.123-2.613-7.791-6.736-8.193-4.136-.408-7.791 2.614-8.193 6.736l-5.46 55.949h-38.125l9.514-298.109h57.704l-20.513 210.198c-.402 4.123 2.613 7.791 6.736 8.193.248.024.494.036.737.036 3.814 0 7.078-2.897 7.456-6.772l20.656-211.655h49.889zm66.934-312.465c0 2.004-1.63 3.634-3.634 3.634h-364.782c-2.004 0-3.634-1.63-3.634-3.634v-11.096c0-2.003 1.63-3.634 3.634-3.634h277.753c4.142 0 7.5-3.358 7.5-7.5s-3.358-7.5-7.5-7.5h-261.71l-.139-9.535c0-.035-.001-.07-.002-.105-.139-4.855 1.816-9.542 5.363-12.86s8.359-4.957 13.235-4.486c2.523.242 5.055-.57 6.964-2.225 1.91-1.656 3.073-4.053 3.191-6.58l.359-7.744c.213-4.591 2.221-8.804 5.651-11.862 3.431-3.057 7.845-4.568 12.431-4.256l3.938.27c4.82.331 9.022-3.016 9.791-7.776l1.929-11.941c1.257-7.778 5.571-14.45 12.15-18.787s14.411-5.671 22.056-3.762l2.331.583c4.251 1.063 8.678-.891 10.756-4.752l.294-.547c1.456-2.704 4.269-4.384 7.341-4.384h1.826c2.909 0 5.626-1.298 7.454-3.563l2.452-3.038c8.942-11.084 22.238-17.44 36.477-17.44s27.535 6.356 36.477 17.438l2.452 3.039c1.828 2.264 4.544 3.563 7.454 3.563h1.826c3.072 0 5.885 1.68 7.341 4.384l.293.545c2.079 3.863 6.504 5.815 10.758 4.753l2.33-.583c7.644-1.911 15.477-.575 22.056 3.762s10.893 11.009 12.15 18.788l1.929 11.939c.769 4.762 4.974 8.114 9.793 7.777l3.935-.27c4.577-.314 9 1.197 12.431 4.256s5.438 7.271 5.651 11.862l.36 7.746c.118 2.525 1.281 4.922 3.19 6.578 1.91 1.655 4.448 2.467 7.01 2.221 4.836-.464 9.642 1.174 13.189 4.491 3.547 3.318 5.502 8.005 5.363 12.86-.001.035-.001.07-.002.105l-.139 9.535h-38.024c-4.142 0-7.5 3.358-7.5 7.5s3.358 7.5 7.5 7.5h55.067c2.004 0 3.634 1.63 3.634 3.634v11.097z" fill="#ffffff" data-original="#000000" style="" class=""/>
      <path d="m278.144 70.667c-3.164-2.674-7.896-2.275-10.569.889-3.102 3.671-7.637 5.777-12.443 5.777s-9.341-2.105-12.443-5.777c-2.673-3.164-7.405-3.562-10.569-.889s-3.562 7.405-.889 10.569c5.958 7.052 14.669 11.096 23.901 11.096s17.943-4.044 23.901-11.096c2.673-3.164 2.275-7.896-.889-10.569z" fill="#ffffff" data-original="#000000" style="" class=""/>
      <path d="m190.052 108.246c-.001 0 0 0 0 0-9.231 0-17.944 4.045-23.902 11.096-2.673 3.164-2.275 7.896.889 10.569 1.408 1.19 3.127 1.771 4.836 1.771 2.132 0 4.25-.904 5.733-2.66 3.102-3.671 7.637-5.777 12.443-5.777s9.341 2.105 12.443 5.777c2.673 3.164 7.405 3.562 10.569.889s3.562-7.405.889-10.569c-5.957-7.052-14.669-11.096-23.9-11.096z" fill="#ffffff" data-original="#000000" style="" class=""/>
      <path d="m321.212 108.246c-9.231 0-17.943 4.044-23.9 11.096-2.673 3.164-2.275 7.896.889 10.569 3.165 2.674 7.897 2.275 10.569-.889 3.102-3.671 7.637-5.777 12.443-5.777s9.342 2.105 12.443 5.777c1.484 1.756 3.601 2.66 5.733 2.66 1.709 0 3.428-.582 4.836-1.771 3.164-2.673 3.562-7.405.889-10.569-5.958-7.052-14.67-11.096-23.902-11.096z" fill="#ffffff" data-original="#000000" style="" class=""/>
    </g>
  </g>
</svg>
